# xmcd
#
# Track frame offsets: 
#        150
#        4958
#        25989
#        46068
#        70144
#        89848
#        115369
#        137888
#        159086
#        186567
#        208616
#        226719
#
# Disc length: 3398 seconds
#
# Revision: 0
# Processed by: cddbd v1.5.2PL0 Copyright (c) Steve Scherf et al.
# Submitted via: ExactAudioCopy v0.95a5
#
DISCID=a20d440c
DTITLE=Sounds Of Blackness - The Best Of
DYEAR=2007
DGENRE=Soul
TTITLE0=Chains
TTITLE1=I Believe
TTITLE2=Stand
TTITLE3=Optimistic
TTITLE4=Hold On (Change Is Comin')
TTITLE5=Spirit
TTITLE6=Testify
TTITLE7=Everything Is Gonna Be Alright
TTITLE8=The Pressure (Part 1)
TTITLE9=I'm Going All The Way
TTITLE10=Black Butterfly
TTITLE11=We Give You Thanks
EXTD=
EXTT0=
EXTT1=
EXTT2=
EXTT3=
EXTT4=
EXTT5=
EXTT6=
EXTT7=
EXTT8=
EXTT9=
EXTT10=
EXTT11=
PLAYORDER=
